<svg width="3016" height="280" viewBox="0 0 3016 280" fill="none" xmlns="http://www.w3.org/2000/svg">
<path d="M69.2285 213.9H84.9785C96.8785 213.9 107.495 212.033 116.829 208.3C126.162 204.567 133.979 199.433 140.279 192.9C146.812 186.367 151.712 178.667 154.979 169.8C158.479 160.7 160.229 150.783 160.229 140.05C160.229 129.55 158.479 119.75 154.979 110.65C151.479 101.55 146.462 93.7333 139.929 87.2C133.629 80.6667 125.812 75.5333 116.479 71.8C107.145 68.0667 96.6452 66.2 84.9785 66.2H69.2285V213.9ZM0.628517 8.1H102.129C120.095 8.1 136.895 11.7167 152.529 18.95C168.395 26.1833 182.162 35.8667 193.829 48C205.729 59.9 215.062 73.9 221.829 90C228.595 105.867 231.979 122.55 231.979 140.05C231.979 157.317 228.595 174 221.829 190.1C215.295 205.967 206.079 219.967 194.179 232.1C182.512 244.233 168.745 253.917 152.879 261.15C137.245 268.383 120.329 272 102.129 272H0.628517V8.1ZM344.375 8.1V272H275.775V8.1H344.375ZM527.955 124.3H664.105C664.105 138.3 663.522 151.017 662.355 162.45C661.189 173.883 658.855 184.5 655.355 194.3C650.455 208.067 643.805 220.317 635.405 231.05C627.005 241.55 617.089 250.417 605.655 257.65C594.455 264.65 582.089 270.017 568.555 273.75C555.022 277.483 540.789 279.35 525.855 279.35C505.322 279.35 486.539 275.967 469.505 269.2C452.705 262.433 438.239 252.983 426.105 240.85C413.972 228.483 404.522 213.783 397.755 196.75C390.989 179.483 387.605 160.467 387.605 139.7C387.605 119.167 390.872 100.383 397.405 83.35C404.172 66.0833 413.622 51.3833 425.755 39.25C438.122 27.1167 452.939 17.6667 470.205 10.9C487.472 4.13332 506.722 0.749987 527.955 0.749987C555.489 0.749987 579.639 6.69999 600.405 18.6C621.172 30.5 637.622 48.9333 649.755 73.9L584.655 100.85C578.589 86.3833 570.655 76 560.855 69.7C551.289 63.4 540.322 60.25 527.955 60.25C517.689 60.25 508.355 62.2333 499.955 66.2C491.555 69.9333 484.322 75.4167 478.255 82.65C472.422 89.65 467.755 98.1667 464.255 108.2C460.989 118.233 459.355 129.433 459.355 141.8C459.355 153 460.755 163.383 463.555 172.95C466.589 182.517 471.022 190.8 476.855 197.8C482.689 204.8 489.922 210.283 498.555 214.25C507.189 217.983 517.222 219.85 528.655 219.85C535.422 219.85 541.955 219.15 548.255 217.75C554.555 216.117 560.155 213.667 565.055 210.4C570.189 206.9 574.389 202.467 577.655 197.1C580.922 191.733 583.139 185.2 584.305 177.5H527.955V124.3ZM776.064 8.1V272H707.464V8.1H776.064ZM931.295 66.2V272H862.695V66.2H806.345V8.1H987.645V66.2H931.295ZM1149.35 174L1118.55 86.15L1087.75 174H1149.35ZM1167.55 226.15H1069.55L1053.8 272H980.653L1081.1 8.1H1156L1256.45 272H1183.3L1167.55 226.15ZM1355.07 8.1V213.9H1437.32V272H1286.47V8.1H1355.07ZM1579.79 272L1624.59 8.1H1692.49L1745.34 148.8L1797.84 8.1H1865.74L1910.54 272H1842.29L1819.54 120.1L1757.24 272H1729.94L1670.79 120.1L1648.04 272H1579.79ZM2097.5 174L2066.7 86.15L2035.9 174H2097.5ZM2115.7 226.15H2017.7L2001.95 272H1928.8L2029.25 8.1H2104.15L2204.6 272H2131.45L2115.7 226.15ZM2323.09 66.2V272H2254.49V66.2H2198.14V8.1H2379.44V66.2H2323.09ZM2510.05 66.2V272H2441.45V66.2H2385.1V8.1H2566.4V66.2H2510.05ZM2747.07 66.2H2665.52V110.3H2742.52V168.4H2665.52V213.9H2747.07V272H2596.92V8.1H2747.07V66.2ZM2865.13 126.05H2878.08C2891.61 126.05 2901.99 123.25 2909.23 117.65C2916.46 112.05 2920.08 104 2920.08 93.5C2920.08 83 2916.46 74.95 2909.23 69.35C2901.99 63.75 2891.61 60.95 2878.08 60.95H2865.13V126.05ZM3015.98 272H2930.58L2865.13 170.5V272H2796.53V8.1H2903.28C2917.98 8.1 2930.81 10.3167 2941.78 14.75C2952.74 18.95 2961.73 24.7833 2968.73 32.25C2975.96 39.7166 2981.33 48.35 2984.83 58.15C2988.56 67.95 2990.43 78.45 2990.43 89.65C2990.43 109.717 2985.53 126.05 2975.73 138.65C2966.16 151.017 2951.93 159.417 2933.03 163.85L3015.98 272Z" fill="white"/>
</svg>
