<svg width="1029" height="526" viewBox="0 0 1029 526" fill="none" xmlns="http://www.w3.org/2000/svg">
<path d="M51.4932 152.5H62.7432C71.2432 152.5 78.8265 151.167 85.4932 148.5C92.1598 145.833 97.7432 142.167 102.243 137.5C106.91 132.833 110.41 127.333 112.743 121C115.243 114.5 116.493 107.417 116.493 99.75C116.493 92.25 115.243 85.25 112.743 78.75C110.243 72.25 106.66 66.6667 101.993 62C97.4932 57.3333 91.9098 53.6667 85.2432 51C78.5765 48.3333 71.0765 47 62.7432 47H51.4932V152.5ZM2.49316 5.5H74.9932C87.8265 5.5 99.8265 8.08333 110.993 13.25C122.327 18.4167 132.16 25.3333 140.493 34C148.993 42.5 155.66 52.5 160.493 64C165.327 75.3333 167.743 87.25 167.743 99.75C167.743 112.083 165.327 124 160.493 135.5C155.827 146.833 149.243 156.833 140.743 165.5C132.41 174.167 122.577 181.083 111.243 186.25C100.077 191.417 87.9932 194 74.9932 194H2.49316V5.5ZM248.026 5.5V194H199.026V5.5H248.026ZM379.155 88.5H476.405C476.405 98.5 475.989 107.583 475.155 115.75C474.322 123.917 472.655 131.5 470.155 138.5C466.655 148.333 461.905 157.083 455.905 164.75C449.905 172.25 442.822 178.583 434.655 183.75C426.655 188.75 417.822 192.583 408.155 195.25C398.489 197.917 388.322 199.25 377.655 199.25C362.989 199.25 349.572 196.833 337.405 192C325.405 187.167 315.072 180.417 306.405 171.75C297.739 162.917 290.989 152.417 286.155 140.25C281.322 127.917 278.905 114.333 278.905 99.5C278.905 84.8333 281.239 71.4167 285.905 59.25C290.739 46.9167 297.489 36.4167 306.155 27.75C314.989 19.0833 325.572 12.3333 337.905 7.49999C350.239 2.66666 363.989 0.249991 379.155 0.249991C398.822 0.249991 416.072 4.49999 430.905 13C445.739 21.5 457.489 34.6667 466.155 52.5L419.655 71.75C415.322 61.4167 409.655 54 402.655 49.5C395.822 45 387.989 42.75 379.155 42.75C371.822 42.75 365.155 44.1667 359.155 47C353.155 49.6667 347.989 53.5833 343.655 58.75C339.489 63.75 336.155 69.8333 333.655 77C331.322 84.1667 330.155 92.1667 330.155 101C330.155 109 331.155 116.417 333.155 123.25C335.322 130.083 338.489 136 342.655 141C346.822 146 351.989 149.917 358.155 152.75C364.322 155.417 371.489 156.75 379.655 156.75C384.489 156.75 389.155 156.25 393.655 155.25C398.155 154.083 402.155 152.333 405.655 150C409.322 147.5 412.322 144.333 414.655 140.5C416.989 136.667 418.572 132 419.405 126.5H379.155V88.5ZM556.376 5.5V194H507.376V5.5H556.376ZM667.255 47V194H618.255V47H578.005V5.5H707.505V47H667.255ZM823.011 124L801.011 61.25L779.011 124H823.011ZM836.011 161.25H766.011L754.761 194H702.511L774.261 5.5H827.761L899.511 194H847.261L836.011 161.25ZM969.95 5.5V152.5H1028.7V194H920.95V5.5H969.95ZM0.829102 526L32.8291 337.5H81.3291L119.079 438L156.579 337.5H205.079L237.079 526H188.329L172.079 417.5L127.579 526H108.079L65.8291 417.5L49.5791 526H0.829102ZM370.618 456L348.618 393.25L326.618 456H370.618ZM383.618 493.25H313.618L302.368 526H250.118L321.868 337.5H375.368L447.118 526H394.868L383.618 493.25ZM531.757 379V526H482.757V379H442.507V337.5H572.007V379H531.757ZM665.302 379V526H616.302V379H576.052V337.5H705.552V379H665.302ZM834.597 379H776.347V410.5H831.347V452H776.347V484.5H834.597V526H727.347V337.5H834.597V379ZM918.925 421.75H928.175C937.841 421.75 945.258 419.75 950.425 415.75C955.591 411.75 958.175 406 958.175 398.5C958.175 391 955.591 385.25 950.425 381.25C945.258 377.25 937.841 375.25 928.175 375.25H918.925V421.75ZM1026.67 526H965.675L918.925 453.5V526H869.925V337.5H946.175C956.675 337.5 965.841 339.083 973.675 342.25C981.508 345.25 987.925 349.417 992.925 354.75C998.091 360.083 1001.92 366.25 1004.42 373.25C1007.09 380.25 1008.42 387.75 1008.42 395.75C1008.42 410.083 1004.92 421.75 997.925 430.75C991.091 439.583 980.925 445.583 967.425 448.75L1026.67 526Z" fill="white"/>
</svg>
