<svg width="1965" height="182" viewBox="0 0 1965 182" fill="none" xmlns="http://www.w3.org/2000/svg">
<path d="M44.7117 139.152H54.9717C62.7237 139.152 69.6397 137.936 75.7197 135.504C81.7997 133.072 86.8917 129.728 90.9957 125.472C95.2517 121.216 98.4437 116.2 100.572 110.424C102.852 104.496 103.992 98.036 103.992 91.044C103.992 84.204 102.852 77.82 100.572 71.892C98.2917 65.964 95.0237 60.872 90.7677 56.616C86.6637 52.36 81.5717 49.016 75.4917 46.584C69.4117 44.152 62.5717 42.936 54.9717 42.936H44.7117V139.152ZM0.0237196 5.088H66.1437C77.8477 5.088 88.7917 7.44399 98.9757 12.156C109.312 16.868 118.28 23.176 125.88 31.08C133.632 38.832 139.712 47.952 144.12 58.44C148.528 68.776 150.732 79.644 150.732 91.044C150.732 102.292 148.528 113.16 144.12 123.648C139.864 133.984 133.86 143.104 126.108 151.008C118.508 158.912 109.54 165.22 99.2037 169.932C89.0197 174.644 77.9997 177 66.1437 177H0.0237196V5.088ZM223.95 5.088V177H179.262V5.088H223.95ZM343.54 80.784H432.232C432.232 89.904 431.852 98.188 431.092 105.636C430.332 113.084 428.812 120 426.532 126.384C423.34 135.352 419.008 143.332 413.536 150.324C408.064 157.164 401.604 162.94 394.156 167.652C386.86 172.212 378.804 175.708 369.988 178.14C361.172 180.572 351.9 181.788 342.172 181.788C328.796 181.788 316.56 179.584 305.464 175.176C294.52 170.768 285.096 164.612 277.192 156.708C269.288 148.652 263.132 139.076 258.724 127.98C254.316 116.732 252.112 104.344 252.112 90.816C252.112 77.44 254.24 65.204 258.496 54.108C262.904 42.86 269.06 33.284 276.964 25.38C285.02 17.476 294.672 11.32 305.92 6.91199C317.168 2.50399 329.708 0.299992 343.54 0.299992C361.476 0.299992 377.208 4.17599 390.736 11.928C404.264 19.68 414.98 31.688 422.884 47.952L380.476 65.508C376.524 56.084 371.356 49.32 364.972 45.216C358.74 41.112 351.596 39.06 343.54 39.06C336.852 39.06 330.772 40.352 325.3 42.936C319.828 45.368 315.116 48.94 311.164 53.652C307.364 58.212 304.324 63.76 302.044 70.296C299.916 76.832 298.852 84.128 298.852 92.184C298.852 99.48 299.764 106.244 301.588 112.476C303.564 118.708 306.452 124.104 310.252 128.664C314.052 133.224 318.764 136.796 324.388 139.38C330.012 141.812 336.548 143.028 343.996 143.028C348.404 143.028 352.66 142.572 356.764 141.66C360.868 140.596 364.516 139 367.708 136.872C371.052 134.592 373.788 131.704 375.916 128.208C378.044 124.712 379.488 120.456 380.248 115.44H343.54V80.784ZM505.165 5.088V177H460.477V5.088H505.165ZM606.286 42.936V177H561.598V42.936H524.89V5.088H642.994V42.936H606.286ZM748.336 113.16L728.272 55.932L708.208 113.16H748.336ZM760.192 147.132H696.352L686.092 177H638.44L703.876 5.088H752.668L818.104 177H770.452L760.192 147.132ZM882.345 5.088V139.152H935.925V177H837.657V5.088H882.345ZM1028.74 177L1057.92 5.088H1102.15L1136.58 96.744L1170.78 5.088H1215.01L1244.2 177H1199.74L1184.92 78.048L1144.33 177H1126.55L1088.02 78.048L1073.2 177H1028.74ZM1365.98 113.16L1345.92 55.932L1325.86 113.16H1365.98ZM1377.84 147.132H1314L1303.74 177H1256.09L1321.52 5.088H1370.32L1435.75 177H1388.1L1377.84 147.132ZM1512.94 42.936V177H1468.25V42.936H1431.55V5.088H1549.65V42.936H1512.94ZM1634.74 42.936V177H1590.05V42.936H1553.34V5.088H1671.44V42.936H1634.74ZM1789.13 42.936H1736.01V71.664H1786.17V109.512H1736.01V139.152H1789.13V177H1691.32V5.088H1789.13V42.936ZM1866.04 81.924H1874.48C1883.29 81.924 1890.06 80.1 1894.77 76.452C1899.48 72.804 1901.84 67.56 1901.84 60.72C1901.84 53.88 1899.48 48.636 1894.77 44.988C1890.06 41.34 1883.29 39.516 1874.48 39.516H1866.04V81.924ZM1964.31 177H1908.68L1866.04 110.88V177H1821.35V5.088H1890.89C1900.47 5.088 1908.83 6.532 1915.97 9.42C1923.12 12.156 1928.97 15.956 1933.53 20.82C1938.24 25.684 1941.74 31.308 1944.02 37.692C1946.45 44.076 1947.66 50.916 1947.66 58.212C1947.66 71.284 1944.47 81.924 1938.09 90.132C1931.86 98.188 1922.58 103.66 1910.27 106.548L1964.31 177Z" fill="white"/>
</svg>
