<svg width="510" height="227" viewBox="0 0 510 227" fill="none" xmlns="http://www.w3.org/2000/svg">
<path d="M59.3066 177.2H72.8066C83.0066 177.2 92.1066 175.6 100.107 172.4C108.107 169.2 114.807 164.8 120.207 159.2C125.807 153.6 130.007 147 132.807 139.4C135.807 131.6 137.307 123.1 137.307 113.9C137.307 104.9 135.807 96.5 132.807 88.7C129.807 80.9 125.507 74.2 119.907 68.6C114.507 63 107.807 58.6 99.8066 55.4C91.8066 52.2 82.8066 50.6 72.8066 50.6H59.3066V177.2ZM0.506642 0.799998H87.5066C102.907 0.799998 117.307 3.89999 130.707 10.1C144.307 16.3 156.107 24.6 166.107 35C176.307 45.2 184.307 57.2 190.107 71C195.907 84.6 198.807 98.9 198.807 113.9C198.807 128.7 195.907 143 190.107 156.8C184.507 170.4 176.607 182.4 166.407 192.8C156.407 203.2 144.607 211.5 131.007 217.7C117.607 223.9 103.107 227 87.5066 227H0.506642V0.799998ZM226.146 227L264.546 0.799998H322.746L368.046 121.4L413.046 0.799998H471.246L509.647 227H451.146L431.646 96.8L378.246 227H354.846L304.146 96.8L284.646 227H226.146Z" fill="white"/>
</svg>
